<svg width="114" height="79" viewBox="0 0 114 79" fill="none" xmlns="http://www.w3.org/2000/svg">
<circle cx="71" cy="11" r="11" fill="#FE1D1D"/>
<path d="M89.0986 7.56326L88.9855 6.70464L88.2985 7.23185L78.8601 14.4742L78.173 15.0014L78.9731 15.3328L89.9644 19.8855L90.7645 20.217L90.6514 19.3583L89.0986 7.56326Z" fill="#039500" stroke="white"/>
<path d="M98.3748 11.8405L98.2618 10.9819L97.5747 11.5091L88.1363 18.7515L87.4492 19.2787L88.2493 19.6101L99.2406 24.1628L100.041 24.4942L99.9277 23.6356L98.3748 11.8405Z" fill="#039500" stroke="white"/>
<path d="M57.1893 4.53723L56.9039 4.42048L56.6715 4.62307L2.17148 52.1231L1.66887 52.5611L2.23017 52.9209L21.7302 65.4209L21.9764 65.5788L22.2347 65.4415L101.235 23.4415L102.176 22.941L101.189 22.5372L57.1893 4.53723Z" fill="#EAEF00" stroke="white"/>
<circle cx="23" cy="46" r="4" fill="#DEA537"/>
<circle cx="48" cy="27" r="4" fill="#DEA537"/>
<rect x="56.9374" y="5" width="7.56218" height="12.9019" transform="rotate(22.5 56.9374 5)" fill="#F4FFB1"/>
<circle cx="83.5" cy="25" r="10.5" fill="#FE1D1D" stroke="white"/>
<path d="M92.6559 28.7403L100.72 22.5524L102.047 32.6303L92.6559 28.7403Z" fill="#039500" stroke="white"/>
<path d="M101.932 33.0176L109.996 26.8297L111.323 36.9075L101.932 33.0176Z" fill="#039500" stroke="white"/>
<path d="M15.8311 66.4389L69.5961 19.5795L112.324 37.059L34.5236 78.4212L15.8311 66.4389Z" fill="#EAEF00" stroke="white"/>
<circle cx="54.5" cy="59" r="4" fill="#DEA537"/>
<circle cx="35.5" cy="60" r="4" fill="#DEA537"/>
<circle cx="81.5" cy="41" r="4" fill="#DEA537"/>
<circle cx="60.5" cy="41" r="4" fill="#DEA537"/>
<rect x="69.4374" y="19" width="7.56218" height="12.9019" transform="rotate(22.5 69.4374 19)" fill="#F4FFB1"/>
</svg>
